<svg xmlns="http://www.w3.org/2000/svg" viewBox="0 0 1024 1024" width="1024" height="1024"><g transform="translate(0.0000,183.3653) scale(2.347391)"><path d="M124.347 243.974C54.935 261.276 0 253.28 0 219.014c0-31.646 54.625-75.037 66.213-75.037 18.85 0-2.693 35.484 58.134 99.997 97.98-27.772 153.61-69.917 153.61-79.391 0-12.872-44.872 15.886-112.491 15.886-50.897 0-83.25-19.79-83.25-62.013C82.216 65.581 139.674 0 218.097 0c34.897 0 69.047 13.912 93.821 36.214 70.544-13.412 124.31-11.233 124.31 24.81 0 27.949-41.537 64.843-49.995 64.843-9.385 0-8.058-18.417-28.589-43.851-15.43-19.117-34.192-32.14-23.243-15.606 7.245 10.941 23.841 35.788 23.636 76.23-.371 72.88-61.348 137.36-139.94 137.36-36.058 0-68.931-13.629-93.75-36.026" style="fill:#5e2dec"/></g></svg>