<svg xmlns="http://www.w3.org/2000/svg" viewBox="0 0 7070.27 945.00" width="7070.27" height="945.00"><g transform="translate(0,0.00) scale(3.37500)"><defs><linearGradient id="a" x1="2275.515" x2="2523.027" y1="1710.02" y2="1890.209" gradientTransform="translate(-2181.886 -1660.75)" gradientUnits="userSpaceOnUse"><stop offset="0" stop-color="#7e3af2"/><stop offset="1" stop-color="#3521cf"/></linearGradient></defs><path d="M124.347 243.974C54.935 261.277 0 253.28 0 219.014c0-31.646 54.625-75.037 66.213-75.037 18.85 0-2.693 35.484 58.134 99.997 97.98-27.772 153.61-69.917 153.61-79.391 0-12.872-44.872 15.886-112.491 15.886-50.897 0-83.25-19.79-83.25-62.013C82.216 65.581 139.674 0 218.097 0c34.897 0 69.047 13.912 93.821 36.214 70.544-13.412 124.31-11.233 124.31 24.81 0 27.949-41.537 64.843-49.995 64.843-9.385 0-8.058-18.417-28.589-43.851-15.43-19.117-34.192-32.14-23.243-15.606 7.245 10.941 23.841 35.788 23.636 76.23-.371 72.88-61.348 137.36-139.94 137.36-36.058 0-68.931-13.629-93.75-36.026" style="fill:url(#a)"/></g><g fill="#17131f" transform="translate(1766.27,822.50) scale(1,-1)"><path transform="translate(0.00,0)" d="M277 -14Q181 -14 119.0 28.0Q57 70 44 151L150 178Q157 140 175.0 118.0Q193 96 219.5 87.0Q246 78 277 78Q324 78 347.5 95.0Q371 112 371 138Q371 165 348.5 178.0Q326 191 280 200L249 205Q198 215 156.0 232.5Q114 250 88.5 280.5Q63 311 63 358Q63 430 116.5 469.0Q170 508 257 508Q340 508 394.0 471.0Q448 434 464 372L358 340Q350 382 323.0 399.5Q296 417 257 417Q217 417 195.5 403.0Q174 389 174 363Q174 337 196.0 324.0Q218 311 255 305L286 299Q341 289 385.5 273.0Q430 257 456.0 227.0Q482 197 482 146Q482 69 426.5 27.5Q371 -14 277 -14Z"/><path transform="translate(525.00,0)" d="M307 -14Q233 -14 174.5 16.5Q116 47 82.5 103.5Q49 160 49 239V255Q49 334 82.5 391.0Q116 448 174.5 478.0Q233 508 307 508Q381 508 439.0 478.0Q497 448 530.5 391.0Q564 334 564 255V239Q564 160 530.5 103.5Q497 47 439.0 16.5Q381 -14 307 -14ZM307 88Q370 88 410.0 128.5Q450 169 450 242V252Q450 325 410.0 365.5Q370 406 307 406Q244 406 204.0 365.5Q164 325 164 252V242Q164 169 204.0 128.5Q244 88 307 88Z"/><path transform="translate(1138.00,0)" d="M159 0V399H27V494H159V594Q159 643 187.5 671.5Q216 700 263 700H391V605H301Q273 605 273 575V494H409V399H273V0Z"/><path transform="translate(1575.00,0)" d="M261 0Q213 0 184.5 28.5Q156 57 156 106V399H27V494H156V653H271V494H413V399H271V125Q271 95 299 95H398V0Z"/><path transform="translate(2032.00,0)" d="M73 0V700H188V0Z"/><path transform="translate(2293.00,0)" d="M226 -14Q174 -14 132.0 4.5Q90 23 65.5 58.0Q41 93 41 144Q41 194 65.5 228.0Q90 262 133.0 279.5Q176 297 231 297H374V327Q374 366 350.0 390.5Q326 415 275 415Q225 415 199.5 391.5Q174 368 166 331L60 366Q72 405 98.5 437.0Q125 469 169.0 488.5Q213 508 277 508Q374 508 429.5 459.5Q485 411 485 319V125Q485 95 513 95H555V0H474Q438 0 415.0 18.0Q392 36 392 67V69H375Q369 55 354.0 35.0Q339 15 308.5 0.5Q278 -14 226 -14ZM245 80Q302 80 338.0 112.5Q374 145 374 200V210H238Q201 210 178.0 194.0Q155 178 155 147Q155 117 179.0 98.5Q203 80 245 80Z"/><path transform="translate(2870.00,0)" d="M262 -8Q205 -8 161.0 17.5Q117 43 93.0 89.5Q69 136 69 198V494H183V207Q183 147 212.5 118.0Q242 89 296 89Q357 89 392.5 129.0Q428 169 428 244V494H542V0H430V69H413Q400 42 365.5 17.0Q331 -8 262 -8Z"/><path transform="translate(3485.00,0)" d="M73 0V494H186V425H203Q216 453 250.0 478.0Q284 503 353 503Q410 503 454.0 477.0Q498 451 522.5 405.0Q547 359 547 296V0H432V287Q432 347 402.5 376.5Q373 406 319 406Q258 406 223.0 365.5Q188 325 188 250V0Z"/><path transform="translate(4100.00,0)" d="M304 -14Q232 -14 174.0 16.0Q116 46 82.5 103.0Q49 160 49 240V254Q49 334 82.5 391.0Q116 448 174.0 478.0Q232 508 304 508Q375 508 425.5 483.0Q476 458 507.0 414.5Q538 371 547 317L436 294Q432 325 417.0 350.5Q402 376 374.5 391.0Q347 406 307 406Q266 406 233.5 388.5Q201 371 182.5 336.0Q164 301 164 252V242Q164 193 182.5 158.5Q201 124 233.5 106.0Q266 88 307 88Q368 88 399.5 119.5Q431 151 439 201L550 175Q538 123 507.0 80.0Q476 37 425.5 11.5Q375 -14 304 -14Z"/><path transform="translate(4689.00,0)" d="M73 0V700H188V429H205Q213 446 231.0 463.0Q249 480 278.5 491.0Q308 502 353 502Q410 502 454.0 476.5Q498 451 522.5 405.0Q547 359 547 296V0H432V287Q432 347 402.5 376.5Q373 406 319 406Q258 406 223.0 365.5Q188 325 188 250V0Z"/></g></svg>